<?xml version="1.0" encoding="UTF-8" standalone="no"?>
<!-- Created with Inkscape (http://www.inkscape.org/) -->

<svg
   xmlns:dc="http://purl.org/dc/elements/1.1/"
   xmlns:cc="http://creativecommons.org/ns#"
   xmlns:rdf="http://www.w3.org/1999/02/22-rdf-syntax-ns#"
   xmlns:svg="http://www.w3.org/2000/svg"
   xmlns="http://www.w3.org/2000/svg"
   xmlns:xlink="http://www.w3.org/1999/xlink"
   xmlns:sodipodi="http://sodipodi.sourceforge.net/DTD/sodipodi-0.dtd"
   xmlns:inkscape="http://www.inkscape.org/namespaces/inkscape"
   height="128"
   id="svg2994"
   inkscape:export-filename="/home/Krug/Projekte/Icon-Sets/set1/png/v10.png"
   inkscape:export-xdpi="72.000000"
   inkscape:export-ydpi="72.000000"
   inkscape:version="0.48.2 r9819"
   sodipodi:docname="plastik_icon_v10.svg"
   sodipodi:version="0.32"
   width="128"
   version="1.1">
  <metadata
     id="metadata3">
    <rdf:RDF>
      <cc:Work
         rdf:about="">
        <dc:title>plastik-icon-theme</dc:title>
        <dc:description />
        <dc:subject>
          <rdf:Bag>
            <rdf:li>icon</rdf:li>
          </rdf:Bag>
        </dc:subject>
        <dc:publisher>
          <cc:Agent
             rdf:about="http://www.openclipart.org/">
            <dc:title>Open Clip Art Library</dc:title>
          </cc:Agent>
        </dc:publisher>
        <dc:creator>
          <cc:Agent>
            <dc:title>Juliane Krug</dc:title>
          </cc:Agent>
        </dc:creator>
        <dc:rights>
          <cc:Agent>
            <dc:title>Juliane Krug</dc:title>
          </cc:Agent>
        </dc:rights>
        <dc:date />
        <dc:format>image/svg+xml</dc:format>
        <dc:type
           rdf:resource="http://purl.org/dc/dcmitype/StillImage" />
        <cc:license
           rdf:resource="http://web.resource.org/cc/PublicDomain" />
        <dc:language>en</dc:language>
      </cc:Work>
      <cc:License
         rdf:about="http://web.resource.org/cc/PublicDomain">
        <cc:permits
           rdf:resource="http://web.resource.org/cc/Reproduction" />
        <cc:permits
           rdf:resource="http://web.resource.org/cc/Distribution" />
        <cc:permits
           rdf:resource="http://web.resource.org/cc/DerivativeWorks" />
      </cc:License>
    </rdf:RDF>
  </metadata>
  <defs
     id="defs2996">
    <linearGradient
       id="linearGradient12980">
      <stop
         id="stop12981"
         offset="0.0000000"
         style="stop-color:#ffffff;stop-opacity:0.88095236;" />
      <stop
         id="stop12982"
         offset="1.0000000"
         style="stop-color:#ffffff;stop-opacity:0.0000000;" />
    </linearGradient>
    <linearGradient
       id="linearGradient12973">
      <stop
         id="stop12974"
         offset="0.0000000"
         style="stop-color:#486dc9;stop-opacity:1.0000000;" />
      <stop
         id="stop12975"
         offset="1.0000000"
         style="stop-color:#4788ff;stop-opacity:1.0000000;" />
    </linearGradient>
    <linearGradient
       id="linearGradient2918">
      <stop
         id="stop2919"
         offset="0.0000000"
         style="stop-color:#000000;stop-opacity:0.39682540;" />
      <stop
         id="stop2920"
         offset="1.0000000"
         style="stop-color:#999a9a;stop-opacity:0.0000000;" />
    </linearGradient>
    <linearGradient
       id="linearGradient1562">
      <stop
         id="stop1563"
         offset="0.0000000"
         style="stop-color:#486dc9;stop-opacity:1.0000000;" />
      <stop
         id="stop1564"
         offset="1.0000000"
         style="stop-color:#4788ff;stop-opacity:1.0000000;" />
    </linearGradient>
    <linearGradient
       id="linearGradient1549">
      <stop
         id="stop1550"
         offset="0.0000000"
         style="stop-color:#ffffff;stop-opacity:0.64550263;" />
      <stop
         id="stop1551"
         offset="1.0000000"
         style="stop-color:#ffffff;stop-opacity:0.0000000;" />
    </linearGradient>
    <linearGradient
       id="linearGradient4249">
      <stop
         id="stop4250"
         offset="0.0000000"
         style="stop-color:#000000;stop-opacity:0.30158731;" />
      <stop
         id="stop4251"
         offset="1.0000000"
         style="stop-color:#999a9a;stop-opacity:0.0000000;" />
    </linearGradient>
    <linearGradient
       id="linearGradient1561"
       inkscape:collect="always"
       spreadMethod="reflect"
       x1="0.49618322"
       x2="0.49618322"
       xlink:href="#linearGradient1562"
       y1="0.2734375"
       y2="0.2890625" />
    <linearGradient
       id="linearGradient2852"
       inkscape:collect="always"
       x1="0.40127388"
       x2="0.50955415"
       xlink:href="#linearGradient1549"
       y1="0.1328125"
       y2="0.4453125" />
    <linearGradient
       id="linearGradient2858"
       inkscape:collect="always"
       x1="0.51461989"
       x2="0.67251462"
       xlink:href="#linearGradient1549"
       y1="0.0703125"
       y2="0.5078125" />
    <radialGradient
       cx="0.32944608"
       cy="0.6875"
       fx="0.32653061"
       fy="0.6953125"
       id="radialGradient2917"
       inkscape:collect="always"
       r="0.24793652"
       xlink:href="#linearGradient2918" />
    <linearGradient
       id="linearGradient9791">
      <stop
         id="stop9792"
         offset="0.0000000"
         style="stop-color:#000000;stop-opacity:1.0000000;" />
      <stop
         id="stop9793"
         offset="1"
         style="stop-color:#fff;stop-opacity:1;" />
    </linearGradient>
    <linearGradient
       id="linearGradient9799">
      <stop
         id="stop9800"
         offset="0.0000000"
         style="stop-color:#ffffff;stop-opacity:1.0000000;" />
      <stop
         id="stop9801"
         offset="1.0000000"
         style="stop-color:#ffffff;stop-opacity:0.0000000;" />
    </linearGradient>
    <linearGradient
       id="linearGradient2243">
      <stop
         id="stop2244"
         offset="0"
         style="stop-color:#000;stop-opacity:1;" />
      <stop
         id="stop2245"
         offset="1"
         style="stop-color:#fff;stop-opacity:1;" />
    </linearGradient>
    <linearGradient
       id="linearGradient2246">
      <stop
         id="stop2247"
         offset="0.0000000"
         style="stop-color:#ffffff;stop-opacity:1.0000000;" />
      <stop
         id="stop2248"
         offset="1.0000000"
         style="stop-color:#ffffff;stop-opacity:0.0000000;" />
    </linearGradient>
    <linearGradient
       id="linearGradient4173">
      <stop
         id="stop4174"
         offset="0"
         style="stop-color:#000;stop-opacity:1;" />
      <stop
         id="stop4175"
         offset="1"
         style="stop-color:#fff;stop-opacity:1;" />
    </linearGradient>
    <linearGradient
       id="linearGradient4177">
      <stop
         id="stop4178"
         offset="0.0000000"
         style="stop-color:#ffffff;stop-opacity:1.0000000;" />
      <stop
         id="stop4179"
         offset="1.0000000"
         style="stop-color:#ffffff;stop-opacity:0.0000000;" />
    </linearGradient>
    <linearGradient
       id="linearGradient1538">
      <stop
         id="stop1539"
         offset="0"
         style="stop-color:#000;stop-opacity:1;" />
      <stop
         id="stop1540"
         offset="1"
         style="stop-color:#fff;stop-opacity:1;" />
    </linearGradient>
    <linearGradient
       id="linearGradient1542">
      <stop
         id="stop1543"
         offset="0.0000000"
         style="stop-color:#ffffff;stop-opacity:1.0000000;" />
      <stop
         id="stop1544"
         offset="1.0000000"
         style="stop-color:#ffffff;stop-opacity:0.0000000;" />
    </linearGradient>
    <linearGradient
       id="linearGradient5311">
      <stop
         id="stop5312"
         offset="0.0000000"
         style="stop-color:#000000;stop-opacity:0.39215687;" />
      <stop
         id="stop5313"
         offset="1.0000000"
         style="stop-color:#000000;stop-opacity:0.0000000;" />
    </linearGradient>
    <linearGradient
       id="linearGradient5315">
      <stop
         id="stop5316"
         offset="0.0000000"
         style="stop-color:#ffffff;stop-opacity:1.0000000;" />
      <stop
         id="stop5317"
         offset="1.0000000"
         style="stop-color:#ffffff;stop-opacity:0.0000000;" />
    </linearGradient>
    <linearGradient
       id="linearGradient4384">
      <stop
         id="stop4385"
         offset="0.0000000"
         style="stop-color:#ffffff;stop-opacity:0.77513230;" />
      <stop
         id="stop4386"
         offset="1.0000000"
         style="stop-color:#ffffff;stop-opacity:0.0000000;" />
    </linearGradient>
    <linearGradient
       id="linearGradient4376">
      <stop
         id="stop4377"
         offset="0.0000000"
         style="stop-color:#000000;stop-opacity:0.52645504;" />
      <stop
         id="stop4378"
         offset="1.0000000"
         style="stop-color:#000000;stop-opacity:0.0000000;" />
    </linearGradient>
    <linearGradient
       id="linearGradient4362">
      <stop
         id="stop4363"
         offset="0.0000000"
         style="stop-color:#ffffff;stop-opacity:0.66666669;" />
      <stop
         id="stop4364"
         offset="1.0000000"
         style="stop-color:#ffffff;stop-opacity:0.0000000;" />
    </linearGradient>
    <linearGradient
       id="linearGradient4358">
      <stop
         id="stop4359"
         offset="0"
         style="stop-color:#000;stop-opacity:1;" />
      <stop
         id="stop4360"
         offset="1"
         style="stop-color:#fff;stop-opacity:1;" />
    </linearGradient>
    <linearGradient
       id="linearGradient12972"
       inkscape:collect="always"
       x1="163.80418"
       x2="303.95895"
       xlink:href="#linearGradient12973"
       y1="217.94005"
       y2="289.04129"
       gradientTransform="scale(0.98139375,1.018959)"
       gradientUnits="userSpaceOnUse" />
    <linearGradient
       id="linearGradient12977"
       inkscape:collect="always"
       x1="296.67819"
       x2="283.93686"
       xlink:href="#linearGradient4376"
       y1="335.25711"
       y2="239.27042"
       gradientTransform="scale(0.98139375,1.018959)"
       gradientUnits="userSpaceOnUse" />
    <radialGradient
       cx="296.67819"
       cy="262.37833"
       fx="296.67819"
       fy="260.6008"
       id="radialGradient12983"
       inkscape:collect="always"
       r="134.70592"
       xlink:href="#linearGradient4362"
       gradientTransform="scale(0.98139375,1.018959)"
       gradientUnits="userSpaceOnUse" />
    <linearGradient
       id="linearGradient12986"
       inkscape:collect="always"
       x1="65.377136"
       x2="176.85205"
       xlink:href="#linearGradient9799"
       y1="143.88733"
       y2="191.82378"
       gradientTransform="scale(1.2415292,0.80545833)"
       gradientUnits="userSpaceOnUse" />
    <linearGradient
       id="linearGradient12988"
       inkscape:collect="always"
       x1="0.50740987"
       x2="0.41357866"
       xlink:href="#linearGradient5311"
       y1="0.734375"
       y2="0.265625" />
  </defs>
  <sodipodi:namedview
     bordercolor="#666666"
     borderopacity="1.0"
     id="base"
     inkscape:cx="97.853062"
     inkscape:cy="55.740647"
     inkscape:guide-bbox="true"
     inkscape:pageopacity="0.0"
     inkscape:pageshadow="2"
     inkscape:window-height="746"
     inkscape:window-width="1272"
     inkscape:window-x="0"
     inkscape:window-y="0"
     inkscape:zoom="2.52"
     pagecolor="#ffffff"
     showguides="true"
     showgrid="false"
     inkscape:window-maximized="0"
     inkscape:current-layer="svg2994" />
  <g
     id="g12989"
     transform="matrix(1.0507314,0,0,1.0255864,-96.249165,-108.00882)"
     inkscape:export-filename="D:\globe_128x128.png"
     inkscape:export-xdpi="89.669273"
     inkscape:export-ydpi="89.669273">
    <path
       d="m 394.76496,283.65384 c 0,64.02018 -49.9853,115.9188 -111.6453,115.9188 -61.66,0 -111.6453,-51.89862 -111.6453,-115.9188 0,-64.02019 49.9853,-115.9188 111.6453,-115.9188 61.66,0 111.6453,51.89861 111.6453,115.9188 z"
       id="path11712"
       sodipodi:cx="283.11966"
       sodipodi:cy="283.65384"
       sodipodi:rx="111.6453"
       sodipodi:ry="115.9188"
       sodipodi:type="arc"
       style="fill:url(#linearGradient12972);fill-opacity:1;fill-rule:evenodd;stroke:none"
       transform="matrix(0.543747,0,0,0.53908,-0.999567,14.81238)" />
    <path
       d="m 394.76496,283.65384 c 0,64.02018 -49.9853,115.9188 -111.6453,115.9188 -61.66,0 -111.6453,-51.89862 -111.6453,-115.9188 0,-64.02019 49.9853,-115.9188 111.6453,-115.9188 61.66,0 111.6453,51.89861 111.6453,115.9188 z"
       id="path12976"
       sodipodi:cx="283.11966"
       sodipodi:cy="283.65384"
       sodipodi:rx="111.6453"
       sodipodi:ry="115.9188"
       sodipodi:type="arc"
       style="fill:url(#linearGradient12977);fill-opacity:1;fill-rule:evenodd;stroke:none"
       transform="matrix(0.543747,0,0,0.53908,-1.730767,15.10032)" />
    <path
       d="m 394.76496,283.65384 c 0,64.02018 -49.9853,115.9188 -111.6453,115.9188 -61.66,0 -111.6453,-51.89862 -111.6453,-115.9188 0,-64.02019 49.9853,-115.9188 111.6453,-115.9188 61.66,0 111.6453,51.89861 111.6453,115.9188 z"
       id="path12978"
       sodipodi:cx="283.11966"
       sodipodi:cy="283.65384"
       sodipodi:rx="111.6453"
       sodipodi:ry="115.9188"
       sodipodi:type="arc"
       style="fill:url(#radialGradient12983);fill-opacity:1;fill-rule:evenodd;stroke:none"
       transform="matrix(0.543747,0,0,0.53908,-1.150937,15.10034)" />
    <g
       id="g11713"
       style="fill:#004696;fill-opacity:0.71708685;stroke:none"
       transform="matrix(0.525012,0,0,0.53908,8.390303,14.81236)">
      <path
         d="m 293.62881,174.51524 -4.15513,0.69252 -2.07756,1.38504 -2.07756,-2.07756 -2.07756,0.69252 -0.69252,6.23268 9.69529,1.38504 7.61773,3.46261 6.23268,8.31025 0.69252,3.4626 2.77009,3.46261 -6.92521,0 -6.92521,2.77008 -1.38504,2.07756 2.07756,2.07756 3.46261,-0.69252 2.77008,3.46261 6.23269,7.61773 6.23268,9.00277 -5.54016,-3.46261 -3.46261,-4.84764 -3.4626,0.69252 2.07756,5.54016 0.69252,2.77009 -5.54016,0.69252 -2.77009,6.9252 -0.69252,4.15513 -2.77008,2.77008 -4.84765,-3.4626 2.77009,0 1.38504,-3.46261 -6.92521,-2.07756 -7.61773,1.38504 -1.38504,6.23269 -4.15512,4.15513 -5.54017,4.84764 0.69252,6.92521 4.15512,-1.38504 0.69253,4.84764 3.4626,0 0,-6.23268 2.77008,0 0,-5.54017 6.23269,-4.84765 1.38504,3.46261 -4.15512,3.4626 1.38504,4.84765 4.84764,-3.46261 2.77009,-0.69252 0,2.77009 -5.54017,2.07756 -2.77008,6.23268 -6.23269,1.38505 -4.15512,-2.07757 -4.84765,-3.4626 0,5.54017 -1.38504,2.07756 -5.54017,6.23269 -10.38781,2.07756 3.4626,6.92521 -2.07756,3.4626 -6.92521,-1.38504 -4.15512,3.4626 0,8.31025 2.77008,2.07756 6.23269,0 4.84765,-4.84764 4.15512,-5.54017 9.00277,-1.38504 9.69529,7.61773 -4.15512,4.15512 8.31025,-2.77008 -8.31025,-10.38781 3.4626,0 11.08033,13.15789 4.15513,5.54017 -0.69252,-9.69529 4.15512,-5.54017 1.38504,-5.54016 6.23269,-2.77009 4.84765,-2.77008 0.69252,4.15512 6.9252,3.46261 -4.84764,3.4626 -6.92521,-1.38504 -5.54017,4.15513 -4.15512,4.15512 4.84765,4.15513 6.23268,-1.38505 4.84765,0.69252 -2.07756,6.23269 0.69252,4.15513 -9.00277,0 -13.1579,-0.69252 -5.54017,4.15512 -14.54293,-7.61773 0.69252,-5.54016 -15.23546,0 -4.15512,2.77008 -4.15513,-2.77008 -10.38781,7.61772 -1.38504,3.46261 -6.92521,1.38504 -6.23268,7.61773 2.07756,3.4626 -4.15513,9.69529 6.92521,10.38781 8.31025,11.08034 7.61773,-0.69252 3.4626,1.38504 9.00277,-1.38504 6.92521,4.84764 4.84765,-0.69252 3.4626,4.84765 -1.38504,2.07756 7.61773,14.54293 -4.84765,6.23269 8.31025,8.31025 7.61773,3.4626 20.0831,-6.23268 4.84765,-3.46261 3.4626,-4.84764 10.38781,-6.23269 -0.69252,-7.61773 5.54017,-9.00277 12.46537,-20.77562 1.38504,-5.54017 -10.38781,5.54017 -9.00277,-3.4626 -5.54016,-9.6953 -9.6953,-13.15789 2.77009,-0.69252 6.92521,9.00277 13.85041,13.85041 11.77285,-9.00277 6.92521,-11.08033 1.38504,-6.92521 -4.84764,-2.77008 -6.92521,4.84765 -8.31025,-5.54017 2.77008,-3.4626 3.46261,2.77008 4.84764,-0.69252 15.23546,-6.23269 8.31025,2.77009 1.38504,-2.77009 6.92521,10.38781 4.15512,-1.38504 -2.77008,-11.08033 2.77008,-24.23823 6.23269,3.46261 4.84765,-11.08034 -4.15513,-9.00277 -9.00277,-24.23822 -11.77285,-11.77286 -2.07756,-0.69252 -5.54017,-5.54016 2.77008,-2.77009 -11.08033,-8.31025 -15.23546,-9.69529 -7.61773,0.69252 -5.54016,-3.4626 -2.77008,-4.84765 -4.15513,1.38505 -4.15512,-3.46261 6.23268,0 2.07757,-0.69252 -4.84765,-3.4626 -2.77008,-1.38504 -4.15513,1.38504 -11.77285,-2.07756 z"
         id="path11693"
         style="fill-rule:evenodd"
         inkscape:connector-curvature="0" />
      <path
         d="m 270.42936,170.01385 c 0.69252,1.38504 2.77009,3.11634 2.77009,3.11634 l 2.42382,1.38505 -3.80887,1.03878 0.69253,2.42382 3.80886,-1.03878 2.42382,1.38504 -1.38504,2.42382 -4.84764,0.34626 -11.77286,1.38504 -6.57895,2.42383 -4.50138,1.03878 0,2.42382 -0.69252,3.4626 -2.07756,2.77009 -4.84765,-1.7313 1.7313,-3.46261 -3.11634,3.46261 -2.07756,3.4626 1.38504,1.38504 -2.77008,2.77008 -4.15513,5.88643 -5.1939,-5.1939 -3.80887,-0.69253 -4.15512,0 -6.92521,7.27147 -9.00277,7.96399 1.03878,1.38504 5.19391,-3.4626 1.38504,0 4.50138,-1.38504 4.84765,-1.7313 1.7313,0.69252 -2.42382,5.1939 -2.77009,3.11635 -1.7313,2.42382 1.38504,1.38504 -2.42382,6.23269 -3.80886,2.77008 -3.11635,-0.69252 3.46261,3.11634 -1.73131,1.7313 -4.84764,1.38505 2.07756,3.80886 -4.15512,2.42382 -0.34626,-3.11634 -1.73131,-2.07756 5.19391,-2.77009 -3.4626,-2.77008 -5.19391,1.7313 1.38504,3.80887 -2.07756,0.69252 -3.4626,-1.38504 2.77008,-3.46261 -2.77008,-1.7313 -1.73131,2.07756 -5.1939,-2.07756 -3.80887,3.11634 -3.4626,-1.03878 -5.19391,5.19391 6.57895,-15.58172 -2.07756,-1.38504 -2.07756,1.38504 11.42659,-14.8892 14.54294,-14.19667 15.58171,-11.42659 3.46261,-1.03878 7.61773,-1.38505 3.80886,-2.77008 8.31025,-1.03878 5.88643,-1.7313 5.1939,0 5.54017,-2.42383 6.92521,-0.34626 3.80886,-2.77008 2.42382,-0.69252 z"
         id="path11699"
         style="fill-rule:evenodd"
         inkscape:connector-curvature="0" />
      <path
         d="m 249.65374,206.37119 -2.07756,2.07756 -1.03878,4.50139 -5.88643,4.84764 -5.88643,2.07757 -5.88642,5.54016 -3.46261,4.84765 1.38504,1.7313 -1.7313,2.42382 2.07756,2.07756 4.84765,-3.11634 5.19391,-2.77008 4.50138,0.34626 2.42382,-0.69252 4.84765,0 3.80886,-4.15513 3.46261,-0.69252 3.80886,-2.77008 0,-2.07756 2.77008,-0.69252 4.84765,-5.54017 -0.69252,-2.77008 -1.03878,-4.15513 -8.31025,0 -3.11634,-0.34626 -4.84765,-0.69252 z"
         id="path11700"
         style="fill-rule:evenodd"
         inkscape:connector-curvature="0" />
      <path
         d="m 239.61219,200.48476 -3.11634,3.80887 -1.38505,3.11634 -3.4626,1.38504 -5.19391,0.34626 -2.42382,5.19391 -2.42382,2.07756 2.42382,1.38504 3.11634,-3.4626 4.50139,0.69252 2.42382,-3.80886 3.11635,-2.42383 4.84764,-5.1939 0,-1.7313 -2.42382,-1.38505 z"
         id="path11701"
         style="fill-rule:evenodd"
         inkscape:connector-curvature="0" />
      <path
         d="m 250.69252,192.52078 -3.11634,3.80886 -1.7313,3.4626 -0.69253,3.11635 2.07757,0.69252 3.4626,-5.54017 1.7313,-2.77008 -1.7313,-2.77008 z"
         id="path11702"
         style="fill-rule:evenodd"
         inkscape:connector-curvature="0" />
      <path
         d="m 260.73407,199.44598 -4.15512,1.38504 -4.50139,-0.34626 -2.77008,1.38505 2.07756,1.7313 5.19391,0.34626 2.77008,1.03878 2.42382,-0.34626 -1.03878,-5.19391 z"
         id="path11703"
         style="fill-rule:evenodd"
         inkscape:connector-curvature="0" />
      <path
         d="m 255.54017,253.80886 -2.42383,3.80887 0.69252,4.15512 -0.69252,2.07757 -1.38504,1.03878 -0.69252,2.77008 1.03878,1.03878 -2.77008,1.03878 5.54017,1.7313 5.54016,-3.4626 -1.7313,-2.77008 0.69252,-3.11635 -2.77008,-2.42382 1.7313,-1.7313 -2.77008,-4.15513 z"
         id="path11704"
         style="fill-rule:evenodd"
         inkscape:connector-curvature="0" />
      <path
         d="m 248.96122,259.00277 -2.07756,3.4626 -1.03878,3.11635 2.77008,0.34626 2.77008,-3.11635 0,-3.4626 -2.42382,-0.34626 z"
         id="path11705"
         style="fill-rule:evenodd"
         inkscape:connector-curvature="0" />
      <path
         d="m 337.60388,367.03601 -3.11635,3.11634 -3.4626,1.03879 -2.77008,5.88642 -2.77009,3.80887 3.80887,1.03878 3.80886,-3.46261 3.11635,-4.50138 3.11634,-5.19391 -1.7313,-1.7313 z"
         id="path11706"
         style="fill-rule:evenodd"
         inkscape:connector-curvature="0" />
      <path
         d="m 162.04986,265.58172 0.34626,11.42659 2.07756,7.27147 1.03879,8.31025 1.38504,7.27147 4.84764,12.11911 0.34626,6.57895 5.54017,9.00277 c 0,0 2.42382,4.50138 3.11634,6.23268 0.69252,1.73131 6.23269,8.65651 6.23269,8.65651 l 1.7313,4.50139 -3.11634,3.4626 1.7313,4.84765 0.69252,3.11634 -6.92521,-8.65651 -9.00277,-14.19667 -6.57894,-16.96676 -3.80887,-18.00554 -1.38504,-21.46815 1.7313,-13.50415 z"
         id="path11707"
         style="fill-rule:evenodd"
         inkscape:connector-curvature="0" />
      <path
         d="m 246.19114,233.72576 -1.73131,3.11635 1.38505,2.07756 0,2.77008 2.77008,0.69252 4.50138,-3.11634 0,-3.11635 -3.11634,0 -3.80886,-2.42382 z"
         id="path11708"
         style="fill-rule:evenodd"
         inkscape:connector-curvature="0" />
      <path
         d="m 277.35457,216.41274 -3.4626,2.07756 0.69252,4.15513 3.4626,1.03878 2.07756,-2.07756 -0.69252,-2.42382 -2.07756,-2.77009 z"
         id="path11709"
         style="fill-rule:evenodd"
         inkscape:connector-curvature="0" />
      <path
         d="m 296.74515,215.37396 -2.42382,4.50139 0,3.80886 2.07756,3.4626 1.38504,0.69253 2.07757,-1.03879 -1.73131,-3.4626 0.69252,-2.42382 -0.69252,-0.69252 1.03879,-2.07757 -2.42383,-2.77008 z"
         id="path11710"
         style="fill-rule:evenodd"
         inkscape:connector-curvature="0" />
      <path
         d="m 338.98892,186.98061 -2.07756,3.4626 4.84764,2.07757 5.54017,2.77008 5.1939,5.54016 6.57895,4.15513 -9.00277,-8.65651 -5.88642,-5.54017 -5.19391,-3.80886 z"
         id="path11711"
         style="fill-rule:evenodd"
         inkscape:connector-curvature="0" />
    </g>
    <path
       d="m 211.91084,163.99574 c -37.92736,59.23718 -61.64219,-34.24573 -117.19775,2.13675 0,-31.99359 25.05571,-57.9594 55.92793,-57.9594 30.87222,0 59.13307,24.89743 61.26982,55.82265 z"
       id="path12984"
       sodipodi:nodetypes="cccc"
       style="fill:url(#linearGradient12986);fill-opacity:1;fill-rule:evenodd;stroke:none"
       inkscape:connector-curvature="0" />
  </g>
</svg>
